<?xml version="1.0" encoding="UTF-8"?>
<svg xmlns="http://www.w3.org/2000/svg" viewBox="0 0 1024 1024">
  <path d="M144 144h128V80H80v192h64zM144 752H80v192h192v-64H144zM752 80v64h128v128h64V80zM880 880h-128v64h192V752h-64zM224 635.312V800h576V635.312l-170.912-110.8C655.6 495.92 672 457.824 672 416v-64c0-88-72-160-160-160s-160 72-160 160v64c0 41.824 16.4 79.92 42.912 108.512L224 635.312zM736 736H288v-66.768L433.872 576h156.24L736 669.232V736zM416 352c0-52.928 43.072-96 96-96s96 43.072 96 96v64c0 52.928-43.072 96-96 96s-96-43.072-96-96v-64z"></path>
</svg> 