<?xml version="1.0" encoding="UTF-8"?>
<svg xmlns="http://www.w3.org/2000/svg" xmlns:xlink="http://www.w3.org/1999/xlink" viewBox="0 0 1024 1024">
  <path d="M528 64C280.576 64 80 264.576 80 512s200.576 448 448 448 448-200.576 448-448S775.424 64 528 64z m384 448c0 96.032-35.52 183.872-94 251.28l-541.28-541.28C344.128 163.52 431.968 128 528 128c211.744 0 384 172.256 384 384zM144 512a382.176 382.176 0 0 1 87.936-244.272l540.336 540.336A382.176 382.176 0 0 1 528 896C316.256 896 144 723.744 144 512z" />
</svg> 