<?xml version="1.0" encoding="UTF-8"?>
<svg xmlns="http://www.w3.org/2000/svg" viewBox="0 0 1024 1024">
  <path d="M64 162.752v239.088c23.792 0 45.84 7.52 64 20.224 28.976 20.272 48 53.824 48 91.776s-19.024 71.52-48 91.776a111.296 111.296 0 0 1-64 20.224v235.424h896V625.824a111.296 111.296 0 0 1-64-20.224c-28.976-20.272-48-53.824-48-91.776s19.024-71.52 48-91.776a111.296 111.296 0 0 1 64-20.224V162.752H64z m720 351.072c0 74.592 46.48 138.192 112 163.824v119.6H128v-119.6c65.52-25.616 112-89.216 112-163.824s-46.48-138.192-112-163.824v-123.264h768v123.264c-65.52 25.632-112 89.232-112 163.824z"></path>
  <path d="M352 385.824h64v256h-64z"></path>
</svg> 