<?xml version="1.0" encoding="UTF-8"?>
<svg xmlns="http://www.w3.org/2000/svg" xmlns:xlink="http://www.w3.org/1999/xlink" viewBox="0 0 1024 1024">
  <path d="M512 64C264.576 64 64 264.576 64 512s200.576 448 448 448 448-200.576 448-448S759.424 64 512 64z m0 832C300.256 896 128 723.744 128 512S300.256 128 512 128s384 172.256 384 384-172.256 384-384 384z" />
  <path d="M471.776 696.64h64v64h-64zM530.416 256.352c-100.432-4.912-159.888 42.656-178.416 142.672l67.2 17.216c13.904-65.568 47.872-98.4 101.952-98.4 44.784 3.312 77.328 31.504 81.952 77.392 1.52 32.832-27.136 62-70.384 94.784-41.712 29.52-61.792 68.064-60.24 115.616v24.592h62.56v-19.68c-1.552-34.432 15.424-63.952 50.976-88.56 60.256-39.36 88.816-85.248 85.744-137.76-9.248-80.288-56.384-122.96-141.344-127.872z" />
</svg> 