<?xml version="1.0" encoding="UTF-8"?>
<svg xmlns="http://www.w3.org/2000/svg" xmlns:xlink="http://www.w3.org/1999/xlink" viewBox="0 0 1024 1024">
  <path d="M857.66647744 90.125c0 40.2954549 34.81363669 212.37443179 56.76136387 256.25454538l-53.60113696 26.81590924a168.89318206 168.89318206 0 0 1-5.87556766-13.39772745l-0.14829566-0.01022717C797.87272717 236.15000027 672.88522744 150.05681794 528.0772731 150.05681794c-198.26590925 0-359.55511331 161.28409131-359.55511413 359.55000054s161.2892049 359.55511331 359.55511413 359.55511331c144.80795435 0 269.7954549-86.09829511 326.72556793-209.74090923h0.22500028l53.46818124 26.72897744c-66.66647717 143.41704565-211.85284103 242.93352255-380.41874945 242.93352255-231.67329565 0-419.48181848-187.80340924-419.48181848-419.47159049C108.59545462 277.92840925 296.40909103 90.125 528.0772731 90.125c110.53125 0 210.9375 42.82159131 285.75511303 112.74034076-9.55227255-48.28806794-16.09261387-92.49034076-16.09261303-112.74034076h59.92670434z" />
</svg> 