<?xml version="1.0" encoding="UTF-8"?>
<svg xmlns="http://www.w3.org/2000/svg" xmlns:xlink="http://www.w3.org/1999/xlink" viewBox="0 0 1024 1024">
  <path d="M864 384c-11.216 0-21.968 2.048-32 5.632V384c0-176-144-320-320-320s-320 144-320 320v5.632A94.912 94.912 0 0 0 160 384c-52.8 0-96 43.2-96 96v128c0 52.8 43.2 96 96 96h42.592c28.368 108.976 112.848 195.744 220.608 227.12 9.536 17.104 27.584 28.88 48.464 28.88h80.688C582.96 960 608 934.96 608 904.336s-25.04-55.664-55.664-55.664h-80.688a55.312 55.312 0 0 0-40.64 17.968C329.472 832.672 256 736.832 256 624V384c0-141.152 114.848-256 256-256s256 114.848 256 256v240c0 5.408-0.48 10.688-0.816 16H768v60.256c0 2.064 1.68 3.744 3.744 3.744H864c52.8 0 96-43.2 96-96v-128c0-52.8-43.2-96-96-96zM192 640h-32c-17.344 0-32-14.656-32-32v-128c0-17.344 14.656-32 32-32s32 14.656 32 32v160z m704-32c0 17.344-14.656 32-32 32h-32V480c0-17.344 14.656-32 32-32s32 14.656 32 32v128z" />
</svg> 