<?xml version="1.0" encoding="UTF-8"?>
<svg xmlns="http://www.w3.org/2000/svg" xmlns:xlink="http://www.w3.org/1999/xlink" viewBox="0 0 1024 1024">
  <path d="M944 384l-92.256-12.72 56.24-74.24L726.96 116.016l-74.24 56.24L640 80H384l-12.72 92.256-74.24-56.24L116.016 297.04l56.24 74.24L80 384v256l92.256 12.72-56.24 74.24 181.024 181.024 74.24-56.24L384 944h256l12.72-92.256 74.24 56.24 181.024-181.024-56.24-74.24L944 640V384z m-64 200.224l-37.008 5.104-108.256 14.928 66 87.12 22.56 29.776-102.128 102.144-29.776-22.56-87.12-66-14.928 108.272-5.12 36.992h-144.448l-5.104-37.008-14.928-108.272-87.12 66-29.776 22.56-102.128-102.144 22.56-29.776 66-87.12-108.256-14.928L144 584.224v-144.448l37.008-5.104 108.272-14.928-66-87.12-22.56-29.776 102.128-102.144 29.776 22.56 87.12 66 14.928-108.256L439.776 144h144.448l5.104 37.008 14.928 108.256 87.12-66 29.776-22.56 102.128 102.144-22.56 29.776-66 87.12 108.256 14.928 37.024 5.104v144.448z" />
  <path d="M512 352c-88.368 0-160 71.632-160 160s71.632 160 160 160 160-71.632 160-160-71.632-160-160-160z m0 256c-52.928 0-96-43.072-96-96s43.072-96 96-96 96 43.072 96 96-43.072 96-96 96z" />
</svg> 