<?xml version="1.0" encoding="UTF-8"?>
<svg xmlns="http://www.w3.org/2000/svg" xmlns:xlink="http://www.w3.org/1999/xlink" viewBox="0 0 1024 1024">
  <path d="M750.933333 0a273.066667 273.066667 0 0 1 273.066667 273.066667v477.866666a273.066667 273.066667 0 0 1-273.066667 273.066667H273.066667a273.066667 273.066667 0 0 1-273.066667-273.066667V273.066667a273.066667 273.066667 0 0 1 273.066667-273.066667h477.866666z m0 68.266667H273.066667a204.8 204.8 0 0 0-204.663467 197.12L68.266667 273.066667v477.866666a204.8 204.8 0 0 0 197.12 204.663467L273.066667 955.733333h477.866666a204.8 204.8 0 0 0 204.663467-197.12L955.733333 750.933333V273.066667a204.8 204.8 0 0 0-197.12-204.663467L750.933333 68.266667z"></path>
</svg> 