<?xml version="1.0" encoding="UTF-8"?>
<svg xmlns="http://www.w3.org/2000/svg" xmlns:xlink="http://www.w3.org/1999/xlink" viewBox="0 0 1024 1024">
  <path d="M513.44 192C328.64 192 162.544 340.08 64 512c98.544 171.92 264.64 320 449.44 320S861.44 683.92 960 512c-98.544-171.92-261.76-320-446.56-320z m0 576c-104.96 0-255.696-68-374.752-256 119.04-188 269.792-256 374.752-256 154 0 289.168 126.928 371.744 256-82.576 129.072-217.744 256-371.744 256z" />
  <path d="M592 512a80 80 0 0 1-80-80 79.92 79.92 0 0 1 47.312-72.88A159.808 159.808 0 0 0 512 352c-88.368 0-160 71.632-160 160s71.632 160 160 160 160-71.632 160-160c0-16.48-2.496-32.368-7.12-47.312A79.92 79.92 0 0 1 592 512z" />
</svg> 