<?xml version="1.0" encoding="UTF-8"?>
<svg xmlns="http://www.w3.org/2000/svg" viewBox="0 0 1024 1024">
  <path d="M512 64C264.6 64 64 264.6 64 512s200.6 448 448 448 448-200.6 448-448S759.4 64 512 64zm0 820c-205.4 0-372-166.6-372-372s166.6-372 372-372 372 166.6 372 372-166.6 372-372 372z" />
  <path d="M512 688c22.1 0 40-17.9 40-40v-304c0-22.1-17.9-40-40-40s-40 17.9-40 40v304c0 22.1 17.9 40 40 40z" />
  <path d="M512 800c26.5 0 48-21.5 48-48s-21.5-48-48-48-48 21.5-48 48 21.5 48 48 48z" />
</svg> 