<?xml version="1.0" encoding="UTF-8"?>
<svg width="31px" height="30px" viewBox="0 0 31 30" version="1.1" xmlns="http://www.w3.org/2000/svg" xmlns:xlink="http://www.w3.org/1999/xlink">
    <title>icon/贷款计算</title>
    <g id="20230427" stroke="none" stroke-width="1" fill="none" fill-rule="evenodd">
        <g id="贷款中心-入口" transform="translate(-43, -1487)">
            <g id="编组-8" transform="translate(15, 1432)">
                <g id="常用功能" transform="translate(13.5, 55)">
                    <g id="icon/贷款计算" transform="translate(15, 0)">
                        <rect id="矩形" opacity="0.638369606" x="0" y="0" width="30" height="30"></rect>
                        <g id="编组-7" transform="translate(2.5, 3)">
                            <rect id="矩形备份-12" stroke="#333333" stroke-width="2" transform="translate(12, 12) rotate(-90) translate(-12, -12)" x="1" y="1" width="22" height="22"></rect>
                            <rect id="矩形" fill="#333333" x="13" y="6" width="6" height="2"></rect>
                            <rect id="矩形备份-10" fill="#EF3434" x="5" y="6" width="6" height="2"></rect>
                            <rect id="矩形备份-10" fill="#EF3434" transform="translate(8, 7) rotate(-270) translate(-8, -7)" x="5" y="6" width="6" height="2"></rect>
                            <rect id="矩形备份-11" fill="#333333" transform="translate(8, 16.25) rotate(-315) translate(-8, -16.25)" x="4.75" y="15.25" width="6.5" height="2"></rect>
                            <rect id="矩形备份-11" fill="#333333" transform="translate(8, 16.25) scale(-1, 1) rotate(-315) translate(-8, -16.25)" x="4.75" y="15.25" width="6.5" height="2"></rect>
                            <rect id="矩形备份-5" fill="#333333" x="13" y="14" width="6" height="2"></rect>
                            <rect id="矩形备份-9" fill="#333333" x="13" y="17" width="6" height="2"></rect>
                        </g>
                    </g>
                </g>
            </g>
        </g>
    </g>
</svg>