<?xml version="1.0" encoding="UTF-8"?>
<svg width="30px" height="30px" viewBox="0 0 30 30" version="1.1" xmlns="http://www.w3.org/2000/svg" xmlns:xlink="http://www.w3.org/1999/xlink">
    <title>代TA还款@1x</title>
    <g id="20230427" stroke="none" stroke-width="1" fill="none" fill-rule="evenodd">
        <g id="贷款中心-入口" transform="translate(-216, -1557)">
            <g id="编组-8" transform="translate(15, 1432)">
                <g id="常用功能" transform="translate(13.5, 55)">
                    <g id="代TA还款" transform="translate(187.5, 70)">
                        <rect id="矩形" x="0" y="0" width="30" height="30"></rect>
                        <g id="编组" transform="translate(2, 4)">
                            <rect id="矩形" stroke="#333333" stroke-width="2" x="1" y="1" width="24" height="20" rx="1"></rect>
                            <path d="M19.1593452,13.0502564 L18.192139,14.0000005 L19.5,14.0000005 L19.5,15.2307696 L17.7758304,15.2307696 L17.7758304,15.692308 L19.5,15.692308 L19.5,16.9230771 L17.7758304,16.9230771 L17.7758304,18 L16.5218888,18 L16.5218888,16.9230771 L14.7977192,16.9230771 L14.7977192,15.692308 L16.5218888,15.692308 L16.5218888,15.2307696 L14.7977192,15.2307696 L14.7977192,14.0000005 L16.1055802,14.0000005 L15.1379546,13.050668 L16.0249087,12.1801046 L17.1488576,13.2841045 L18.2732259,12.1805143 L19.1593452,13.0502564 Z M10.8523938,13.1700507 L7.75390426,16.717954 L13.3870212,16.717954 L13.3870212,17.9487231 L7.75390426,17.9487231 C7.061372,17.9487231 6.5,17.397652 6.5,16.7179175 C6.5,16.4242021 6.60703469,16.1401714 6.8017434,15.9171349 L9.67411206,12.6276911 C10.0398397,12.8525122 10.4348313,13.0354853 10.8523938,13.1700507 Z M12.5510595,4 C14.8595659,4 16.7308582,5.83671706 16.7308582,8.10255713 C16.7308582,10.368403 14.85956,12.2051143 12.5510595,12.2051143 C10.2425531,12.2051143 8.37126083,10.3683972 8.37126083,8.10255713 C8.37126083,5.83671129 10.242559,4 12.5510595,4 Z M9.62520226,8.10255713 C9.62520226,9.68860499 10.9351558,10.9743452 12.5510594,10.9743452 C14.1669687,10.9743452 15.4769163,9.68859922 15.4769163,8.10255713 C15.4769163,6.51650927 14.1669628,5.23076906 12.5510592,5.23076906 C10.9351499,5.23076906 9.62520226,6.51651504 9.62520226,8.10255713 Z" id="形状" stroke="#EF3434" stroke-width="0.2" fill="#EF3434" fill-rule="nonzero"></path>
                        </g>
                    </g>
                </g>
            </g>
        </g>
    </g>
</svg>