<?xml version="1.0" encoding="UTF-8"?>
<svg width="30px" height="30px" viewBox="0 0 30 30" version="1.1" xmlns="http://www.w3.org/2000/svg" xmlns:xlink="http://www.w3.org/1999/xlink">
    <title>电子账户@1x</title>
    <g id="20230427" stroke="none" stroke-width="1" fill="none" fill-rule="evenodd">
        <g id="贷款中心-入口" transform="translate(-32, -302)">
            <g id="金刚区" transform="translate(23, 302)">
                <g id="电子账户" transform="translate(9, 0)">
                    <rect id="矩形" x="0" y="0" width="30" height="30"></rect>
                    <g id="编组" transform="translate(2, 4.5)">
                        <path d="M25.99855,5.5 L19.4530955,5.5 C16.44055,5.5 13.99855,7.7385 13.99855,10.5 C13.99855,13.261 16.44055,15.5 19.4530955,15.5 L25.99855,15.5 L25.99855,5.5 Z M23.99855,13.5 L19.4271214,13.5 C17.5362643,13.5 15.99855,12.1545 15.99855,10.5 C15.99855,8.8455 17.5362643,7.5 19.4271214,7.5 L23.99855,7.5 L23.99855,13.5 Z" id="Fill-6" fill="#ED171F"></path>
                        <path d="M2,19 L24,19 L24,2 L2,2 L2,19 Z M1,0 L25,0 C25.552,0 26,0.448 26,1 L26,20 C26,20.552 25.552,21 25,21 L1,21 C0.448,21 0,20.552 0,20 L0,1 C0,0.448 0.448,0 1,0 L1,0 Z" id="Fill-1" fill="#101010"></path>
                        <path d="M2,19 L24,19 L24,2 L2,2 L2,19 Z M1,0 L25,0 C25.552,0 26,0.448 26,1 L26,20 C26,20.552 25.552,21 25,21 L1,21 C0.448,21 0,20.552 0,20 L0,1 C0,0.448 0.448,0 1,0 L1,0 Z" id="Fill-1备份" fill="#101010"></path>
                        <path d="M19,9.5 C18.448,9.5 18,9.948 18,10.5 C18,11.052 18.448,11.5 19,11.5 C19.552,11.5 20,11.052 20,10.5 C20,9.948 19.552,9.5 19,9.5" id="Fill-7" fill="#ED171F"></path>
                    </g>
                </g>
            </g>
        </g>
    </g>
</svg>