<?xml version="1.0" encoding="UTF-8"?>
<svg width="30px" height="30px" viewBox="0 0 30 30" version="1.1" xmlns="http://www.w3.org/2000/svg" xmlns:xlink="http://www.w3.org/1999/xlink">
    <title>查看还款计划@1x</title>
    <g id="20230427" stroke="none" stroke-width="1" fill="none" fill-rule="evenodd">
        <g id="贷款中心-入口" transform="translate(-129, -1487)">
            <g id="编组-8" transform="translate(15, 1432)">
                <g id="常用功能" transform="translate(13.5, 55)">
                    <g id="查看还款计划" transform="translate(100.5, 0)">
                        <rect id="矩形" x="0" y="0" width="30" height="30"></rect>
                        <g id="编组-10" transform="translate(3, 2.5)">
                            <g id="手" transform="translate(0, 14.5)" stroke="#333333" stroke-width="2">
                                <path d="M0.20160174,7.16718695 C0.0409555302,6.26750927 -0.023682562,5.34423718 0.00768746305,4.39737069 C0.00768746305,3.9067996 0.20160174,3.40409351 0.54710174,2.77068695 C1.22362606,1.53041217 4.99460174,-1.57731305 8.06010174,0.983186954 C8.06010174,0.983186954 10.6286017,3.39618695 13.4241017,4.15068695 C13.4241017,4.15068695 16.4111017,5.80968695 12.2351017,6.48868695 C12.2351017,6.48868695 9.34410174,6.63918695 6.39760174,4.60268695" id="Stroke-1"></path>
                                <path d="M16.0693017,4.90448695 L22.6423017,0.831986954 C22.6423017,0.831986954 24.9853017,0.0779869544 23.9273017,2.86848695 C23.9273017,2.86848695 20.3585007,8.48185041 14.4588017,9.65598695 C11.0462689,10.1911689 7.98143553,10.1911689 5.26430174,9.65598695" id="Stroke-3"></path>
                            </g>
                            <path d="M15.1,0 C10.9094407,0 7.5,3.40941854 7.5,7.6 C7.5,11.7905593 10.9094185,15.2 15.1,15.2 C19.2905593,15.2 22.7,11.7905815 22.7,7.6 C22.6994594,3.40944072 19.2905815,0 15.1,0 L15.1,0 Z" id="路径" stroke="#333333" stroke-width="2" fill-rule="nonzero"></path>
                            <path d="M12,6.85520544 L18,6.85520544 M15,6.85520544 L15,12 M15,6.92498398 L16.9965503,3.5 M15,6.92498398 L13.0034497,3.5 M12,9.32313718 L18,9.32313718" id="形状结合" stroke="#EF3434" stroke-width="1.7"></path>
                        </g>
                    </g>
                </g>
            </g>
        </g>
    </g>
</svg>