<?xml version="1.0" encoding="UTF-8"?>
<svg width="30px" height="30px" viewBox="0 0 30 30" version="1.1" xmlns="http://www.w3.org/2000/svg" xmlns:xlink="http://www.w3.org/1999/xlink">
    <title>结清证明@1x</title>
    <g id="20230427" stroke="none" stroke-width="1" fill="none" fill-rule="evenodd">
        <g id="贷款中心-入口" transform="translate(-216, -1487)">
            <g id="编组-8" transform="translate(15, 1432)">
                <g id="常用功能" transform="translate(13.5, 55)">
                    <g id="结清证明" transform="translate(187.5, 0)">
                        <rect id="矩形" x="0" y="0" width="30" height="30"></rect>
                        <g id="资信证明" transform="translate(3, 2)">
                            <path d="M20,-3.12351506e-17 C20.5522847,7.0217912e-17 21,0.44771525 21,1 L20.999,14.5 L18.999,14.5 L19,2 L2,2 L2,24 L12.5,24 L12.5,26 L1,26 C0.44771525,26 -7.10542736e-15,25.5522847 -7.10542736e-15,25 L-3.55271368e-15,1 C-3.55271368e-15,0.44771525 0.44771525,-3.62293159e-15 1,-3.52147853e-15 L20,-3.12351506e-17 Z" id="形状结合" fill="#333333" fill-rule="nonzero"></path>
                            <g id="星星" transform="translate(13.5, 16)">
                                <path d="M6.98047494,4.31633373 L6.0974423,5.21886388 L6.30592372,6.49241862 C6.31440583,6.54482058 6.29387019,6.59769041 6.2527989,6.62903801 C6.2295847,6.64681725 6.20190622,6.65570686 6.17422775,6.65570686 C6.15279925,6.65570686 6.13181718,6.65056024 6.11217439,6.63979913 L5.02066034,6.03811235 L3.92914628,6.63979913 C3.88405715,6.66459648 3.82959306,6.66038561 3.7889682,6.62903801 C3.74789691,6.59769041 3.72736127,6.54482058 3.73584338,6.49241862 L3.9443248,5.21886388 L3.06084573,4.31633373 C3.02468515,4.27937163 3.01129233,4.22369455 3.02691728,4.17316409 C3.04254223,4.12263363 3.08450637,4.08567153 3.13450619,4.07818554 L4.35548408,3.89243931 L4.90146432,2.73351386 C4.92378568,2.68579065 4.97021408,2.65584667 5.02110676,2.65584667 C5.07199944,2.65584667 5.11842785,2.68579065 5.14074921,2.73351386 L5.68583659,3.89243931 L6.90636806,4.07818554 C6.95681431,4.08567153 6.99833202,4.12263363 7.01395697,4.17316409 C7.02958191,4.22369455 7.01663553,4.27937163 6.98047494,4.31633373 Z" id="路径" fill="#EF3434" fill-rule="nonzero"></path>
                                <circle id="椭圆形" stroke="#EF3434" stroke-width="1.7" cx="5" cy="5" r="4.15"></circle>
                            </g>
                            <rect id="矩形" fill="#333333" x="4" y="5.5" width="13" height="2"></rect>
                            <rect id="矩形备份-13" fill="#333333" x="4" y="10" width="7" height="2"></rect>
                        </g>
                    </g>
                </g>
            </g>
        </g>
    </g>
</svg>