<?xml version="1.0" encoding="UTF-8"?>
<svg width="30px" height="30px" viewBox="0 0 30 30" version="1.1" xmlns="http://www.w3.org/2000/svg" xmlns:xlink="http://www.w3.org/1999/xlink">
    <title>我的额度@1x</title>
    <g id="20230427" stroke="none" stroke-width="1" fill="none" fill-rule="evenodd">
        <g id="贷款中心-入口" transform="translate(-220, -302)">
            <g id="金刚区" transform="translate(23, 302)">
                <g id="额度记录" transform="translate(197, 0)">
                    <rect id="矩形" x="0" y="0" width="30" height="30"></rect>
                    <g id="编组" transform="translate(5, 3)" stroke-linecap="round" stroke-width="2">
                        <path d="M19.2,17.4 L19.2,22.8 C19.2,23.46276 18.66276,24 18,24 L14.1,24" id="路径" stroke="#333333" stroke-linejoin="round"></path>
                        <path d="M19.2,7.2 L19.2,1.2 C19.2,0.537258 18.66276,0 18,0 L1.2,0 C0.537258,0 0,0.537258 0,1.2 L0,22.8 C0,23.46276 0.537258,24 1.2,24 L4.8,24" id="路径" stroke="#333333" stroke-linejoin="round"></path>
                        <line x1="4.8" y1="7.2" x2="13.2" y2="7.2" id="路径" stroke="#333333"></line>
                        <line x1="9" y1="24" x2="19.2" y2="11.4" id="路径" stroke="#FF413B"></line>
                        <line x1="4.8" y1="12" x2="9.6" y2="12" id="路径" stroke="#333333"></line>
                    </g>
                </g>
            </g>
        </g>
    </g>
</svg>