<?xml version="1.0" encoding="UTF-8"?>
<svg width="30px" height="30px" viewBox="0 0 30 30" version="1.1" xmlns="http://www.w3.org/2000/svg" xmlns:xlink="http://www.w3.org/1999/xlink">
    <title>个人信息变更@1x</title>
    <g id="20230427" stroke="none" stroke-width="1" fill="none" fill-rule="evenodd">
        <g id="贷款中心-入口" transform="translate(-291, -1487)">
            <g id="编组-8" transform="translate(15, 1432)">
                <g id="常用功能" transform="translate(13.5, 55)">
                    <g id="个人信息变更" transform="translate(262.5, 0)">
                        <rect id="矩形" x="0" y="0" width="30" height="30"></rect>
                        <g id="修改用户名" transform="translate(2.5, 2.5)">
                            <g id="修改" transform="translate(15.5217, 15)" fill="#EF3434">
                                <polygon id="路径" points="0 8.01893288 5.76847376 2.22222222 7.76086957 4.20484991 1.99160214 10 0 10"></polygon>
                                <path d="M9.80659,2.25517362 L8.83593199,3.33333333 L6.65217391,1.18635362 L7.68754246,0.167620654 L7.68754249,0.167620616 C7.90366759,-0.0513373308 8.25927219,-0.0564469133 8.48180363,0.156206529 C8.48572675,0.159955486 8.48959401,0.163760613 8.49340419,0.167620696 L9.80745876,1.46141156 L9.80745875,1.46141155 C10.0302288,1.67382334 10.0358162,2.02370638 9.81993544,2.24289911 C9.81584214,2.24705521 9.81168273,2.25114779 9.80745877,2.25517532 L9.80659,2.25517362 Z" id="路径"></path>
                            </g>
                            <g id="账户">
                                <ellipse id="椭圆形" stroke="#333333" stroke-width="2" cx="11.0869565" cy="6.66666667" rx="5.65217391" ry="5.66666667"></ellipse>
                                <path d="M15.499,15 L15.499,17.222 L4.98913043,17.2222222 C3.49862511,17.2222222 2.28290518,18.4012815 2.21995212,19.8795058 L2.2173913,20 L2.2173913,22.7777778 L12.75,22.777 L12.75,25 L1.10869565,25 C0.496379951,25 0,24.5025386 0,23.8888889 L0,20 C0,17.2385763 2.23370978,15 4.98913043,15 L15.499,15 Z" id="形状结合" fill="#333333" fill-rule="nonzero"></path>
                            </g>
                        </g>
                    </g>
                </g>
            </g>
        </g>
    </g>
</svg>