<?xml version="1.0" encoding="UTF-8"?>
<svg width="30px" height="30px" viewBox="0 0 30 30" version="1.1" xmlns="http://www.w3.org/2000/svg" xmlns:xlink="http://www.w3.org/1999/xlink">
    <title>优惠券@1x</title>
    <g id="20230427" stroke="none" stroke-width="1" fill="none" fill-rule="evenodd">
        <g id="贷款中心-入口" transform="translate(-126, -302)">
            <g id="金刚区" transform="translate(23, 302)">
                <g id="优惠券" transform="translate(103, 0)">
                    <rect id="矩形" x="0" y="0" width="30" height="30"></rect>
                    <g transform="translate(2, 5)">
                        <path d="M25.0000159,1.00013021 L25.0008504,7.40865332 C24.4563544,7.52500972 24.0020839,7.74625134 23.6423073,8.02909606 C22.9501222,8.57326949 22.57535,9.35722587 22.57535,10.2267564 C22.57535,11.0444811 22.9131196,11.785973 23.4628126,12.3222589 C23.7860995,12.6376608 24.1829363,12.881836 24.6262774,13.027191 L24.9980803,19 L1,19.0000116 L1.00006891,13.0428564 C1.56293885,12.9330586 2.02843495,12.7158513 2.39535106,12.4370718 C3.11045571,11.8937417 3.49042984,11.1037087 3.49042984,10.2267564 C3.49042984,9.40903164 3.15266026,8.66753971 2.60296726,8.13125386 C2.27867468,7.81487086 1.8803741,7.57015834 1.43536401,7.42496822 L1.00226935,1 L25.0000159,1.00013021 Z" id="形状结合" stroke="#333333" stroke-width="2"></path>
                        <polygon id="路径" fill="#FF413B" fill-rule="nonzero" points="8.54320001 5.90120001 10.6936 5.90120001 10.6936 14.5028 8.54320001 14.5028"></polygon>
                    </g>
                </g>
            </g>
        </g>
    </g>
</svg>